<svg width="36" height="35" viewBox="0 0 36 35" fill="none" xmlns="http://www.w3.org/2000/svg">
<g clip-path="url(#clip0_2_514)">
<circle cx="18" cy="17.5" r="17.5" fill="#505050"/>
<path d="M18.6528 28.875C18.5804 28.875 18.5079 28.875 18.435 28.8746C16.7203 28.8788 15.136 28.8352 13.5953 28.7414C12.1827 28.6555 10.8933 28.1673 9.86621 27.3299C8.8752 26.5218 8.19845 25.4291 7.85481 24.0826C7.55574 22.9104 7.53989 21.7596 7.5247 20.6466C7.51369 19.848 7.50234 18.9018 7.5 17.9395C7.50234 16.9731 7.51369 16.0269 7.5247 15.2283C7.53989 14.1154 7.55574 12.9647 7.85481 11.7923C8.19845 10.4458 8.8752 9.35313 9.86621 8.54504C10.8933 7.70757 12.1827 7.2194 13.5954 7.13345C15.1362 7.03983 16.7208 6.9961 18.4392 7.00027C20.1543 6.9966 21.7381 7.03983 23.2789 7.13345C24.6915 7.2194 25.9809 7.70757 27.008 8.54504C27.9991 9.35313 28.6757 10.4458 29.0194 11.7923C29.3184 12.9645 29.3343 14.1154 29.3495 15.2283C29.3605 16.0269 29.372 16.9731 29.3742 17.9354V17.9395C29.372 18.9018 29.3605 19.848 29.3495 20.6466C29.3343 21.7595 29.3186 22.9102 29.0194 24.0826C28.6757 25.4291 27.9991 26.5218 27.008 27.3299C25.9809 28.1673 24.6915 28.6555 23.2789 28.7414C21.8034 28.8312 20.2877 28.875 18.6528 28.875ZM18.435 27.1656C20.1218 27.1696 21.6706 27.1271 23.1751 27.0356C24.2432 26.9707 25.1693 26.6241 25.928 26.0054C26.6293 25.4335 27.1123 24.6444 27.3634 23.66C27.6124 22.6842 27.6268 21.6365 27.6406 20.6233C27.6515 19.83 27.6628 18.8904 27.6652 17.9374C27.6628 16.9843 27.6515 16.0449 27.6406 15.2516C27.6268 14.2384 27.6124 13.1907 27.3634 12.2147C27.1123 11.2303 26.6293 10.4413 25.928 9.86933C25.1693 9.25083 24.2432 8.90419 23.1751 8.83927C21.6706 8.74764 20.1218 8.70542 18.439 8.70909C16.7525 8.70509 15.2036 8.74764 13.6991 8.83927C12.631 8.90419 11.7049 9.25083 10.9462 9.86933C10.2449 10.4413 9.7619 11.2303 9.51073 12.2147C9.26172 13.1907 9.24737 14.2383 9.23352 15.2516C9.22267 16.0455 9.21132 16.9857 9.20898 17.9395C9.21132 18.8891 9.22267 19.8293 9.23352 20.6233C9.24737 21.6365 9.26172 22.6842 9.51073 23.66C9.7619 24.6444 10.2449 25.4335 10.9462 26.0054C11.7049 26.6239 12.631 26.9705 13.6991 27.0355C15.2036 27.1271 16.7529 27.1698 18.435 27.1656ZM18.3943 23.278C15.4496 23.278 13.0537 20.8823 13.0537 17.9374C13.0537 14.9926 15.4496 12.5969 18.3943 12.5969C21.3391 12.5969 23.7348 14.9926 23.7348 17.9374C23.7348 20.8823 21.3391 23.278 18.3943 23.278ZM18.3943 14.3059C16.3919 14.3059 14.7627 15.9351 14.7627 17.9374C14.7627 19.9398 16.3919 21.569 18.3943 21.569C20.3968 21.569 22.0259 19.9398 22.0259 17.9374C22.0259 15.9351 20.3968 14.3059 18.3943 14.3059ZM24.333 10.8879C23.6252 10.8879 23.0513 11.4617 23.0513 12.1696C23.0513 12.8776 23.6252 13.4514 24.333 13.4514C25.041 13.4514 25.6147 12.8776 25.6147 12.1696C25.6147 11.4617 25.041 10.8879 24.333 10.8879Z" fill="white"/>
</g>
<defs>
<clipPath id="clip0_2_514">
<rect width="35" height="35" fill="white" transform="translate(0.5)"/>
</clipPath>
</defs>
</svg>
