<svg width="36" height="35" viewBox="0 0 36 35" fill="none" xmlns="http://www.w3.org/2000/svg">
<g clip-path="url(#clip0_2_520)">
<circle cx="18" cy="17.5" r="17.5" fill="#505050"/>
<path d="M18.5039 7.25L18.8262 7.25488C20.4354 7.30703 22.0115 7.73824 23.4258 8.51367C28.3912 11.2361 30.2079 17.4656 27.4844 22.4287C24.8034 27.3142 18.7228 29.1464 13.7979 26.6064L9.56152 27.2969C9.32345 27.3356 9.08069 27.2575 8.91016 27.0869C8.73979 26.9165 8.66162 26.6744 8.7002 26.4365L9.38867 22.2031C8.64263 20.7554 8.25138 19.1496 8.25 17.5186C8.24406 11.8531 12.8345 7.25628 18.502 7.25H18.5039ZM14.0654 13.0664C14.2371 15.3612 15.2198 17.5241 16.8467 19.1621C18.4817 20.782 20.6369 21.7641 22.9248 21.9443V19.9902C22.3543 19.9694 21.7902 19.8588 21.2539 19.6592C21.1937 19.6384 21.1534 19.6288 21.127 19.6221C21.0928 19.6471 21.0394 19.6906 20.9619 19.7676L20.0781 20.6738C19.8465 20.911 19.4869 20.9684 19.1934 20.8145C18.3445 20.3685 17.5726 19.7888 16.9072 19.0986C16.2213 18.425 15.6483 17.6455 15.21 16.79C15.06 16.4973 15.1181 16.1408 15.3535 15.9111L16.2598 15.0273L16.3643 14.9414C16.3847 14.9276 16.3998 14.9074 16.4062 14.8838C16.4127 14.8601 16.4101 14.8347 16.3994 14.8125C16.3896 14.7922 16.381 14.7711 16.373 14.75C16.1703 14.2101 16.0581 13.6413 16.0371 13.0664H14.0654Z" stroke="white" stroke-width="1.5" stroke-linecap="round" stroke-linejoin="round"/>
</g>
<defs>
<clipPath id="clip0_2_520">
<rect width="35" height="35" fill="white" transform="translate(0.5)"/>
</clipPath>
</defs>
</svg>
